# Blender v2.82 (sub 7) OBJ File: ''
# www.blender.org
mtllib obstacle.mtl
o Sphere
v -0.256792 1.097411 -0.370881
v -0.310784 0.305405 -0.290929
v -0.412922 0.196357 -1.274769
v 0.082982 -0.473602 -0.648051
v 0.610477 0.853741 -1.004871
v 0.290800 -0.095524 -0.945406
v 0.389423 1.173010 -0.353470
v 0.596690 0.250313 -0.688127
v 0.397606 -0.410770 -0.473857
v 0.176010 -0.867087 -0.410174
v 0.946180 0.093418 -0.494350
v 0.564809 -0.312222 -0.052992
v 1.333070 0.423824 0.418692
v 0.495258 -0.055742 0.037679
v 0.259744 -0.410841 -0.038190
v 0.449073 0.409912 0.043285
v 0.699520 -0.419757 0.509742
v 0.711735 0.667519 0.938693
v 0.201636 0.511255 0.247687
v 0.342141 0.028561 0.636414
v 0.335461 -1.350639 0.426954
v 0.086641 -0.505438 0.607079
v 0.075041 0.205476 1.015269
v -0.476542 0.131218 0.685631
v -0.594294 -0.432698 1.304163
v -0.048035 1.451843 0.166693
v -0.382178 -0.450519 0.358597
v -1.114779 0.838187 0.517943
v -1.373909 0.066340 0.765697
v -0.196267 0.596631 0.199295
v -1.140989 -0.491304 0.239058
v -0.766757 -1.204308 0.176233
v -0.021859 -0.818120 0.059731
v -0.679358 0.594069 -0.156920
v -0.985953 -0.072632 -0.235750
v -0.994841 0.828945 -0.741042
v -0.849067 0.007356 -0.577998
v -0.409411 -0.652370 -0.240283
v -0.289957 -0.283725 -0.419675
vt 0.797448 0.715726
vt 0.661953 0.703837
vt 0.804071 0.544218
vt 0.846846 0.874295
vt 0.734375 1.000000
vt 0.608795 0.860754
vt 0.635334 0.588019
vt 0.702279 0.471674
vt 0.570091 0.517255
vt 0.516597 0.343624
vt 0.633507 0.317235
vt 0.490178 0.721497
vt 0.730366 0.048064
vt 0.505027 0.196812
vt 0.349433 0.116762
vt 0.452981 0.593425
vt 0.486135 0.468853
vt 0.399088 0.361369
vt 0.330856 0.509424
vt 0.352569 0.658936
vt 0.270653 0.283141
vt 0.352620 0.815540
vt 0.259675 0.563607
vt 0.255021 0.951399
vt 0.128188 0.846890
vt 0.166187 0.049004
vt 0.185728 0.401903
vt 0.180802 0.654772
vt 0.123216 0.273583
vt 0.070316 0.695143
vt 0.082812 0.514485
vt 0.030787 0.376397
vt 1.000000 0.875000
vt 0.966979 0.972292
vt 1.000000 0.334687
vt 0.970796 0.481227
vt 0.907378 0.207006
vt 0.996354 0.174786
vt 0.903807 0.498709
vt 0.845200 0.344076
vt 0.896783 0.692686
vt 0.733717 0.301268
vt 0.683873 0.154626
vt 0.000000 0.725079
vt 0.000000 0.479867
vt 0.038529 0.186427
vt 0.966233 0.724147
vt 0.945930 0.046024
vn -0.5329 0.8453 -0.0384
vn -0.0849 0.8467 -0.5253
vn -0.6942 0.5247 -0.4927
vn 0.7893 -0.2994 -0.5360
vn 0.5304 0.1514 -0.8341
vn 0.6717 -0.7347 -0.0948
vn 0.9540 0.1936 0.2289
vn 0.2861 -0.4064 -0.8677
vn 0.1525 0.9069 -0.3928
vn 0.9358 0.3119 -0.1644
vn 0.2874 -0.9258 -0.2457
vn 0.7550 -0.2410 -0.6099
vn 0.5797 -0.5045 -0.6399
vn 0.2438 -0.0788 0.9666
vn 0.3861 -0.5674 0.7273
vn 0.8902 0.4481 0.0819
vn 0.1740 -0.1368 0.9752
vn -0.5538 0.8009 0.2277
vn -0.1085 0.0566 0.9925
vn -0.8701 -0.3335 0.3630
vn 0.6440 -0.3730 0.6680
vn -0.4308 0.7062 0.5618
vn -0.1129 -0.9936 -0.0066
vn 0.3991 0.5366 0.7435
vn -0.0741 -0.7009 0.7094
vn -0.9512 0.1746 0.2543
vn -0.5424 -0.5343 -0.6483
vn -0.5683 -0.2286 -0.7905
vn -0.3547 -0.8690 -0.3450
vn 0.4797 -0.1204 -0.8691
vn 0.3559 -0.1773 -0.9175
vn 0.4506 -0.6916 -0.5644
vn 0.5061 -0.3554 -0.7858
vn 0.5561 -0.6272 -0.5453
vn 0.8788 -0.3879 0.2780
vn -0.8371 0.2736 -0.4737
vn 0.3104 -0.9455 0.0981
vn 0.7654 -0.0198 0.6432
vn 0.7999 -0.4605 0.3848
vn 0.4470 -0.8849 0.1308
vn 0.6766 0.3806 0.6303
vn 0.8031 0.2594 0.5364
vn 0.1149 0.9452 -0.3056
vn 0.1304 0.9420 -0.3093
vn 0.1761 -0.1553 0.9720
vn 0.5040 -0.5900 0.6308
vn 0.6758 -0.3587 0.6439
vn -0.3056 0.9008 0.3084
vn 0.0644 0.7022 0.7091
vn -0.3640 -0.7758 0.5154
vn -0.4901 -0.8666 -0.0936
vn 0.0068 0.7383 0.6744
vn 0.3312 -0.3781 0.8645
vn 0.0647 0.2852 0.9563
vn -0.1450 -0.1621 0.9761
vn 0.1695 0.9567 -0.2367
vn -0.9670 0.1173 0.2263
vn -0.9336 -0.0557 -0.3539
vn 0.2444 -0.6799 -0.6913
vn -0.4562 0.6440 0.6141
vn -0.3322 -0.3235 -0.8860
vn -0.4914 -0.4051 -0.7710
vn -0.5141 0.6629 0.5442
vn -0.3187 -0.8453 -0.4288
vn 0.6613 0.7350 -0.1501
vn -0.7883 -0.2513 -0.5616
vn -0.2845 -0.7587 -0.5859
vn -0.3575 -0.9324 -0.0534
vn 0.0388 -0.1030 -0.9939
usemtl None
s off
f 2/1/1 5/2/1 3/3/1
f 1/4/2 26/5/2 7/6/2
f 7/6/3 5/2/3 2/1/3
f 5/2/4 8/7/4 6/8/4
f 6/8/5 8/7/5 11/9/5
f 11/9/6 12/10/6 9/11/6
f 7/6/7 16/12/7 5/2/7
f 33/13/8 15/14/8 21/15/8
f 16/12/9 13/16/9 11/9/9
f 14/17/10 17/18/10 12/10/10
f 12/10/11 17/18/11 15/14/11
f 15/14/12 17/18/12 21/15/12
f 13/16/13 17/18/13 14/17/13
f 13/16/14 20/19/14 17/18/14
f 13/16/15 18/20/15 20/19/15
f 11/9/16 8/7/16 5/2/16 16/12/16
f 20/19/17 22/21/17 17/18/17
f 19/22/18 23/23/18 18/20/18
f 26/24/19 30/25/19 19/22/19
f 22/21/20 33/26/20 21/15/20
f 23/23/21 25/27/21 22/21/21
f 24/28/22 25/27/22 23/23/22
f 25/27/23 27/29/23 22/21/23
f 24/28/24 30/25/24 28/30/24
f 29/31/25 31/32/25 27/29/25
f 30/33/26 26/34/26 1/4/26
f 31/35/27 35/36/27 38/37/27
f 31/35/28 38/37/28 32/38/28
f 37/39/29 39/40/29 35/36/29
f 1/4/30 2/1/30 36/41/30
f 3/3/31 5/2/31 6/8/31
f 4/42/32 6/8/32 9/11/32
f 4/42/33 9/11/33 10/43/33
f 6/8/34 11/9/34 9/11/34
f 10/43/35 9/11/35 15/14/35
f 34/44/36 35/45/36 29/31/36 28/30/36
f 15/14/37 9/11/37 12/10/37
f 11/9/38 14/17/38 12/10/38
f 33/13/39 10/43/39 15/14/39
f 11/9/40 13/16/40 14/17/40
f 7/6/41 19/22/41 16/12/41
f 7/6/42 26/24/42 19/22/42
f 16/12/43 18/20/43 13/16/43
f 16/12/44 19/22/44 18/20/44
f 21/15/45 17/18/45 22/21/45
f 20/19/46 18/20/46 23/23/46
f 20/19/47 23/23/47 22/21/47
f 19/22/48 24/28/48 23/23/48
f 24/28/49 19/22/49 30/25/49
f 33/26/50 22/21/50 27/29/50
f 25/27/51 29/31/51 27/29/51
f 25/27/52 24/28/52 29/31/52
f 33/26/53 27/29/53 32/46/53
f 29/31/54 24/28/54 28/30/54
f 27/29/55 31/32/55 32/46/55
f 28/30/56 30/25/56 34/44/56
f 36/41/57 37/39/57 35/36/57 34/47/57
f 31/32/58 29/31/58 35/45/58
f 32/38/59 38/37/59 33/48/59
f 30/33/60 1/4/60 34/47/60
f 38/37/61 35/36/61 39/40/61
f 10/43/62 38/37/62 39/40/62 4/42/62
f 34/47/63 1/4/63 36/41/63
f 37/39/64 3/3/64 39/40/64
f 36/41/65 2/1/65 3/3/65
f 37/39/66 36/41/66 3/3/66
f 4/42/67 39/40/67 3/3/67 6/8/67
f 33/48/68 38/37/68 10/43/68
f 2/1/69 1/4/69 7/6/69
